<svg xmlns="http://www.w3.org/2000/svg" width="25.156" height="21.861" viewBox="0 0 25.156 21.861"><defs><style>.a{fill:#4f6dd8;}</style></defs><g transform="translate(-24.451 -665.189)"><g transform="translate(24.451 665.189)"><path class="a" d="M10,13.3l1.08.392A5.446,5.446,0,1,1,2.355,7.754V4.6H0V3.448H2.93a.575.575,0,0,1,.575.575V6.979a5.411,5.411,0,0,1,.683-.292l.374,1.087A4.3,4.3,0,1,0,10,13.3ZM4.022,1.954A1.954,1.954,0,1,1,5.976,3.907,1.956,1.956,0,0,1,4.022,1.954Zm1.954.8a.8.8,0,0,0,0-1.609A.8.8,0,0,0,5.976,2.758ZM13.834,14.48l-2.815-3.465c-.234-.287-.114-.212-4.468-.212V7.585h4.137V6.436H6.55V4.482H5.4v6.9a.575.575,0,0,0,.575.575H10.3c3.069,3.777,2.895,3.677,3.261,3.677H15.4V14.48Z" transform="translate(0 4.502) rotate(-17)"/><rect class="a" width="19.996" height="1.149" transform="translate(5.698 20.63) rotate(-17)"/><rect class="a" width="19.307" height="1.149" transform="translate(5.758 20.712)"/></g></g></svg>