<svg xmlns="http://www.w3.org/2000/svg" width="24.108" height="30.104" viewBox="0 0 24.108 30.104"><defs><style>.a{fill:#4f6dd8;}</style></defs><g transform="translate(-572 -745.098)"><path class="a" d="M591.033,775.855v-1.269h.71a.793.793,0,0,0,0-1.586H576.111a.793.793,0,0,0,0,1.586h.647v1.269H572v14.592h24.108V775.855Zm-1.586-1.269v1.9h.02c-.045,5.085-11.119,5.111-11.167,0h.044v-1.9Zm-15.861,2.855H576.8c.484,2.394,3.133,4.22,6.3,4.478v6.942h-9.516Zm20.936,11.42h-9.834v-6.942c3.172-.258,5.8-2.084,6.28-4.478h3.553Z" transform="translate(0 -19.051)"/><path class="a" d="M596.78,808.3a.83.83,0,0,0,1.659,0A.83.83,0,0,0,596.78,808.3Z" transform="translate(-16.919 -42.591)"/><path class="a" d="M616.546,808.3a.829.829,0,0,0,1.659,0A.829.829,0,0,0,616.546,808.3Z" transform="translate(-30.415 -42.591)"/><rect class="a" width="1.586" height="2.221" transform="translate(572 772.982)"/><rect class="a" width="1.586" height="2.221" transform="translate(594.522 772.982)"/><path class="a" d="M608.586,747.743a1.112,1.112,0,0,1,2.221,0v1.448h1.586v-1.448a2.7,2.7,0,0,0-5.393,0v4.937h1.586Z" transform="translate(-23.897)"/><rect class="a" width="1.586" height="1.269" transform="translate(580.565 751.411)"/><rect class="a" width="1.586" height="1.269" transform="translate(585.64 751.411)"/></g></svg>