<svg xmlns="http://www.w3.org/2000/svg" width="26.239" height="26.801" viewBox="0 0 26.239 26.801"><defs><style>.a{fill:#4f6dd8;}</style></defs><g transform="translate(-564.946 -749.302)"><path class="a" d="M591.152,754.082c-.147-.586-.741-.717-1.923-.978-.388-.086-.861-.19-1.118-.28-.1-.111-.3-.353-.413-.493a2.757,2.757,0,0,0-.484-.531,7.51,7.51,0,0,0-1.689-.842l-.47,1.392a6.2,6.2,0,0,1,1.266.618c.052.06.156.188.234.285.461.572.645.782.894.888a9.35,9.35,0,0,0,1.464.4c.226.05.522.115.753.175a7.937,7.937,0,0,1-.423,1.082c-.948.131-3.112.581-3.869,2-.049.092-.095.187-.138.284l-3.311-1.62c.219-.5.418-1.02.613-1.534a13.625,13.625,0,0,1,1.5-3.153l.117-.159.022-.2c.022-.2.045-.393.066-.574a13.991,13.991,0,0,0,.13-1.542H582.9a13.217,13.217,0,0,1-.12,1.371q-.022.189-.046.393a15.57,15.57,0,0,0-1.574,3.339,11.326,11.326,0,0,1-1.465,3.017l-.315.383c-2.575,3.128-6.073,7.462-6.722,8.976a21.153,21.153,0,0,0-1.089,4.147,11.544,11.544,0,0,1-.653,2.553,2.178,2.178,0,0,1-1.605,1.053,2.68,2.68,0,0,1-1.907-.366,2.559,2.559,0,0,1-.99-1.918,3.858,3.858,0,0,1,1.245-2.421l-.967-1.105a5.306,5.306,0,0,0-1.746,3.505,3.985,3.985,0,0,0,1.471,3.025,3.753,3.753,0,0,0,2.432.782,4.517,4.517,0,0,0,.688-.052,3.633,3.633,0,0,0,2.651-1.767,10.974,10.974,0,0,0,.825-3.013,20.142,20.142,0,0,1,1-3.845c.426-.993,2.615-3.893,6.507-8.621l.318-.387a5.749,5.749,0,0,0,.414-.588l3.535,1.73a20.155,20.155,0,0,0-.323,3.907c-.006.432-.01.805-.03,1.079a3.914,3.914,0,0,1-.847,1.652,6.449,6.449,0,0,0-.365.538c-.09.157-.3.527-1.118,8.23a.734.734,0,0,0,.4.734l.859.43.658-1.314-.4-.2c.347-3.227.761-6.63.908-7.2.059-.093.152-.222.25-.357a4.953,4.953,0,0,0,1.122-2.407c.023-.317.028-.71.034-1.165.019-1.447.047-3.634.741-4.933.415-.779,2.13-1.2,3.112-1.276a.734.734,0,0,0,.593-.392A5.111,5.111,0,0,0,591.152,754.082Z"/><path class="a" d="M602.087,811.121l-.254,1.446c.033.006,3.137.612,3.1,5.729h-4.867v1.469h5.577a.734.734,0,0,0,.733-.691C606.787,812.028,602.134,811.129,602.087,811.121Z" transform="translate(-24.801 -43.661)"/></g></svg>