<svg xmlns="http://www.w3.org/2000/svg" width="19.989" height="22.459" viewBox="0 0 19.989 22.459"><defs><style>.a{fill:#4f6dd8;}</style></defs><g transform="translate(-787.64 -312.499)"><path class="a" d="M806.66,369.012a9.067,9.067,0,0,0-4.589-3.451.627.627,0,0,0-.6.131,6.888,6.888,0,0,1-3.841,1.652h-.1a6.855,6.855,0,0,1-3.822-1.651.629.629,0,0,0-.624-.126,9.564,9.564,0,0,0-4.535,3.54c-1.087,1.727-.9,4.82-.894,4.951a.629.629,0,0,0,.628.589h4.859v-1.258H788.9a7.78,7.78,0,0,1,.719-3.611,8.219,8.219,0,0,1,3.564-2.893,7.688,7.688,0,0,0,4.352,1.718h.1a7.772,7.772,0,0,0,4.38-1.728,7.685,7.685,0,0,1,3.587,2.808,8.332,8.332,0,0,1,.772,3.685h-4.434v1.258h5.06a.629.629,0,0,0,.629-.6C807.628,373.888,807.743,370.731,806.66,369.012Z" transform="translate(0 -39.688)"/><path class="a" d="M806.933,317.674l.191,3.782a4.709,4.709,0,0,0,9.418,0l.182-3.67.276-3.376a1.766,1.766,0,0,0-1.759-1.91h-6.815a1.765,1.765,0,0,0-1.76,1.909Zm8.35,3.766a3.456,3.456,0,0,1-2.736,3.375v-1.584H811.29v1.612a3.453,3.453,0,0,1-2.907-3.4c0-.011,0-.021,0-.032l-.142-2.805h1.3a.629.629,0,0,0,.629-.629v-1.657h3.473v1.657a.629.629,0,0,0,.629.629h1.151l-.139,2.806C815.284,321.418,815.284,321.429,815.284,321.439Zm-7.231-7.519a.5.5,0,0,1,.373-.164h6.815a.508.508,0,0,1,.505.549l-.278,3.4-.031.618v-.976H814.9v-1.657a.629.629,0,0,0-.629-.629h-4.731a.629.629,0,0,0-.629.629v1.657h-.744l-.249-3.039A.5.5,0,0,1,808.052,313.921Z" transform="translate(-14.234)"/><rect class="a" width="1.258" height="1.258" transform="translate(796.861 330.633)"/><rect class="a" width="1.258" height="1.258" transform="translate(796.861 333.149)"/></g></svg>