<svg xmlns="http://www.w3.org/2000/svg" width="20.167" height="23.652" viewBox="0 0 20.167 23.652"><defs><style>.a{fill:#fff;}</style></defs><g transform="translate(-787.383 -530.584)"><path class="a" d="M788.844,532.044h12.851v4.016a.73.73,0,0,0,.73.73h3.651v5.9h1.46v-7.435l-4.42-4.675H787.383v23.652h9.2v-1.46h-7.742Zm14.311.706,2.438,2.579h-2.438Z" transform="translate(0)"/><rect class="a" width="12.107" height="1.46" transform="translate(791.332 540.617)"/><rect class="a" width="8.172" height="1.46" transform="translate(791.332 537.002)"/><rect class="a" width="5.537" height="1.46" transform="translate(791.332 544.022)"/><rect class="a" width="5.389" height="1.46" transform="translate(791.332 547.428)"/><rect class="a" width="1.367" height="1.46" transform="translate(806.168 552.775)"/><rect class="a" width="1.367" height="1.46" transform="translate(803.439 552.775)"/><rect class="a" width="1.367" height="1.46" transform="translate(799.504 550.161)"/><rect class="a" width="1.367" height="1.46" transform="translate(806.183 550.161)"/><rect class="a" width="1.367" height="1.46" transform="translate(802.072 547.428)"/></g></svg>