<svg xmlns="http://www.w3.org/2000/svg" width="39.999" height="40" viewBox="0 0 39.999 40"><defs><style>.a{fill:#4f6dd8;}</style></defs><g transform="translate(-712.416 -288.596)"><g transform="translate(717.416 307.346)"><g transform="translate(18.75)"><path class="a" d="M765.671,331.233h-7.5a1.25,1.25,0,0,1-1.25-1.25v-2.5a3.754,3.754,0,0,1,3.75-3.75h2.5a3.754,3.754,0,0,1,3.75,3.75v2.5A1.25,1.25,0,0,1,765.671,331.233Zm-6.25-2.5h5v-1.25a1.252,1.252,0,0,0-1.25-1.25h-2.5a1.252,1.252,0,0,0-1.25,1.25Z" transform="translate(-756.921 -323.733)"/></g><g transform="translate(22.499 5)"><path class="a" d="M765.2,349.352a1.25,1.25,0,0,1-1.25-1.25v-13.75a1.25,1.25,0,0,1,2.5,0V348.1A1.25,1.25,0,0,1,765.2,349.352Z" transform="translate(-763.948 -333.103)"/></g><g transform="translate(17.5 4.999)"><path class="a" d="M755.831,349.352c-.038,0-.076,0-.115-.005a1.25,1.25,0,0,1-1.132-1.358l1.25-13.75a1.25,1.25,0,1,1,2.49.226l-1.25,13.75A1.25,1.25,0,0,1,755.831,349.352Z" transform="translate(-754.579 -333.102)"/></g><g transform="translate(26.249 5)"><path class="a" d="M773.474,349.352a1.25,1.25,0,0,1-1.243-1.137l-1.25-13.75a1.25,1.25,0,1,1,2.49-.226l1.25,13.75a1.25,1.25,0,0,1-1.132,1.358C773.55,349.35,773.512,349.352,773.474,349.352Z" transform="translate(-770.975 -333.102)"/></g><g transform="translate(18.75 12.5)"><path class="a" d="M765.671,349.657h-7.5a1.25,1.25,0,1,1,0-2.5h7.5a1.25,1.25,0,1,1,0,2.5Z" transform="translate(-756.921 -347.157)"/></g><g transform="translate(1.25)"><path class="a" d="M732.877,331.233h-7.5a1.25,1.25,0,0,1-1.25-1.25v-2.5a3.754,3.754,0,0,1,3.75-3.75h2.5a3.754,3.754,0,0,1,3.75,3.75v2.5A1.25,1.25,0,0,1,732.877,331.233Zm-6.249-2.5h5v-1.25a1.252,1.252,0,0,0-1.25-1.25h-2.5a1.252,1.252,0,0,0-1.25,1.25Z" transform="translate(-724.128 -323.733)"/></g><g transform="translate(5 5)"><path class="a" d="M732.405,349.352a1.25,1.25,0,0,1-1.25-1.25v-13.75a1.25,1.25,0,0,1,2.5,0V348.1A1.25,1.25,0,0,1,732.405,349.352Z" transform="translate(-731.155 -333.103)"/></g><g transform="translate(0 5)"><path class="a" d="M723.037,349.352c-.038,0-.076,0-.115-.005a1.25,1.25,0,0,1-1.132-1.358l1.25-13.75a1.25,1.25,0,1,1,2.49.226l-1.25,13.75A1.251,1.251,0,0,1,723.037,349.352Z" transform="translate(-721.785 -333.103)"/></g><g transform="translate(8.749 5)"><path class="a" d="M740.68,349.352a1.251,1.251,0,0,1-1.243-1.137l-1.25-13.75a1.25,1.25,0,0,1,2.49-.226l1.25,13.75a1.25,1.25,0,0,1-1.132,1.358C740.756,349.35,740.719,349.352,740.68,349.352Z" transform="translate(-738.181 -333.102)"/></g><g transform="translate(1.25 12.5)"><path class="a" d="M732.877,349.657h-7.5a1.25,1.25,0,1,1,0-2.5h7.5a1.25,1.25,0,1,1,0,2.5Z" transform="translate(-724.128 -347.157)"/></g></g><g transform="translate(712.416 299.846)"><path class="a" d="M751.165,315.929a1.25,1.25,0,0,1-1.25-1.25v-2.5h-35v2.5a1.25,1.25,0,1,1-2.5,0v-3.75a1.25,1.25,0,0,1,1.25-1.25h37.5a1.25,1.25,0,0,1,1.25,1.25v3.75A1.25,1.25,0,0,1,751.165,315.929Z" transform="translate(-712.416 -309.679)"/></g><g transform="translate(712.416 303.596)"><path class="a" d="M751.165,341.705a1.25,1.25,0,0,1-1.25-1.25V319.206h-35v21.249a1.25,1.25,0,0,1-2.5,0v-22.5a1.25,1.25,0,0,1,1.25-1.25h37.5a1.25,1.25,0,0,1,1.25,1.25v22.5A1.25,1.25,0,0,1,751.165,341.705Z" transform="translate(-712.416 -316.706)"/></g><g transform="translate(718.666 293.597)"><path class="a" d="M731.628,306.716h-5a1.249,1.249,0,0,1-1.225-1l-1.25-6.249a1.249,1.249,0,0,1,1.226-1.5h7.5a1.25,1.25,0,0,1,1.226,1.5l-1.25,6.249A1.249,1.249,0,0,1,731.628,306.716Zm-3.976-2.5H730.6l.75-3.75H726.9Z" transform="translate(-724.128 -297.967)"/></g><g transform="translate(719.916 288.596)"><path class="a" d="M730.22,296.1a1.25,1.25,0,0,1-1.25-1.25v-2.977l-1.809-.9a1.25,1.25,0,0,1,1.118-2.236l2.5,1.25a1.251,1.251,0,0,1,.691,1.118v3.75A1.25,1.25,0,0,1,730.22,296.1Z" transform="translate(-726.47 -288.596)"/></g><g transform="translate(736.165 293.597)"><path class="a" d="M764.421,306.716h-5a1.249,1.249,0,0,1-1.225-1l-1.25-6.249a1.249,1.249,0,0,1,1.226-1.5h7.5a1.249,1.249,0,0,1,1.226,1.5l-1.25,6.249A1.249,1.249,0,0,1,764.421,306.716Zm-3.976-2.5H763.4l.75-3.75H759.7Z" transform="translate(-756.921 -297.967)"/></g><g transform="translate(739.915 288.596)"><path class="a" d="M765.2,296.1a1.25,1.25,0,0,1-1.25-1.25V291.1a1.251,1.251,0,0,1,.691-1.118l2.5-1.25a1.25,1.25,0,0,1,1.118,2.236l-1.808.9v2.977A1.25,1.25,0,0,1,765.2,296.1Z" transform="translate(-763.948 -288.597)"/></g></g></svg>