<svg xmlns="http://www.w3.org/2000/svg" width="20" height="20" viewBox="0 0 20 20"><defs><style>.a{fill:#16c87b;}.b{fill:#fff;stroke:rgba(0,0,0,0);}</style></defs><g transform="translate(-149 -76)"><circle class="a" cx="10" cy="10" r="10" transform="translate(149 76)"/><path class="b" d="M580.076,714.606a.674.674,0,0,1-.478-.2l-3.382-3.4a.682.682,0,0,1,0-.961.675.675,0,0,1,.956,0L580,712.892l5.621-7.527a.675.675,0,0,1,.947-.136.682.682,0,0,1,.135.952l-6.089,8.154a.673.673,0,0,1-.493.27Z" transform="translate(-422.53 -623.906)"/></g></svg>