<svg xmlns="http://www.w3.org/2000/svg" width="40.928" height="44.204" viewBox="0 0 40.928 44.204"><defs><style>.a{fill:#4f6dd8;stroke:#4f6dd8;}</style></defs><g transform="translate(-555.883 -549.835)"><g transform="translate(559.382 565.381)"><path class="a" d="M583.9,614.269H567.34L564.068,588.9h23.107ZM568.37,613.1h14.5l2.971-23.03H565.4Z" transform="translate(-564.068 -588.898)"/></g><g transform="translate(560.354 568.693)"><rect class="a" width="14.14" height="1.171"/></g><g transform="translate(574.493 568.693)"><path class="a" d="M607.481,598.557H605.92v-1.171h1.561Zm-3.121,0H602.8v-1.171h1.561Z" transform="translate(-602.799 -597.386)"/></g><g transform="translate(565.156 572.491)"><g transform="translate(5.154 0.043)"><rect class="a" width="1.171" height="17.633"/></g><g transform="translate(0 0)"><rect class="a" width="1.171" height="17.681" transform="translate(0 0.086) rotate(-4.218)"/></g><g transform="translate(9.09 0)"><rect class="a" width="17.681" height="1.171" transform="translate(0 17.633) rotate(-85.782)"/></g></g><g transform="translate(560.354 592.369)"><rect class="a" width="26.56" height="1.171"/></g><g transform="translate(586.914 592.369)"><path class="a" d="M642.436,659.236h-1.561v-1.17h1.561Zm-3.121,0h-1.561v-1.17h1.561Zm-3.121,0h-1.561v-1.17h1.561Z" transform="translate(-634.632 -658.065)"/></g><g transform="translate(556.383 550.335)"><path class="a" d="M559.161,565.143a2.776,2.776,0,0,1-.992-5.37c0-.019,0-.038,0-.057a4.581,4.581,0,0,1,4.364-4.75,3.584,3.584,0,0,1,3.21-2,3.54,3.54,0,0,1,.95.129,4.587,4.587,0,0,1,8.794,1.829v0a4.422,4.422,0,0,1,.693.193,2.778,2.778,0,0,1,5.1.869,3.58,3.58,0,0,1,3.016,4.487,2.757,2.757,0,0,1,.92,2.062,2.785,2.785,0,0,1-.9,2.045l-.792-.862a1.6,1.6,0,0,0-.231-2.541l-.416-.263.188-.455a2.409,2.409,0,0,0-2.228-3.33l-.073,0-.6.016v-.6a1.607,1.607,0,0,0-3.14-.485l-.211.675-.624-.334a3.334,3.334,0,0,0-1.369-.387l-.621-.041.078-.617a3.358,3.358,0,0,0,.032-.437,3.416,3.416,0,0,0-6.708-.916l-.187.675-.631-.3a2.389,2.389,0,0,0-1.047-.242,2.413,2.413,0,0,0-2.271,1.61l-.144.409-.433-.018c-.092,0-.185-.008-.278,0a3.411,3.411,0,0,0-3.279,3.539,3.312,3.312,0,0,0,.048.436l.1.581-.581.094a1.605,1.605,0,0,0,.26,3.19Z" transform="translate(-556.383 -550.335)"/></g><g transform="translate(564.98 557.082)"><path class="a" d="M578.9,570.535a3.555,3.555,0,0,1-.481-.029l.169-1.158a2.241,2.241,0,0,0,2.28-1.037l.319-.685.583.481a3.39,3.39,0,0,0,1.98.769l-.066,1.169a4.566,4.566,0,0,1-2.117-.65A3.357,3.357,0,0,1,578.9,570.535Z" transform="translate(-578.416 -567.626)"/></g><g transform="translate(572.886 557.663)"><path class="a" d="M603.159,575.463h0q-.063,0-.125,0a1.932,1.932,0,0,1-1.5-.884,2.133,2.133,0,0,1-2.834-2.3,2.119,2.119,0,0,1,1.91-1.833,2.41,2.41,0,0,1,3.3-1.039,2.4,2.4,0,0,1,1.244,2.413,2.431,2.431,0,0,1-.278.86,1.925,1.925,0,0,1-1.712,2.785Zm-1.434-2.2a.754.754,0,0,1,.714.513.753.753,0,0,0,.675.512l.046,0a.754.754,0,0,0,.565-1.243l-.312-.371.306-.375a1.237,1.237,0,0,0-.362-1.865,1.266,1.266,0,0,0-.6-.152,1.242,1.242,0,0,0-1.173.851l-.014.056-.138.483-.5-.063a.95.95,0,0,0-1.078.827.961.961,0,0,0,1.467.94A.757.757,0,0,1,601.725,573.265Z" transform="translate(-598.678 -569.116)"/></g><g transform="translate(582.179 577.078)"><path class="a" d="M626.312,625.414h0a2.145,2.145,0,0,1-2.042-1.515,2.406,2.406,0,1,1,1.347-4.619,1.923,1.923,0,0,1,2.519,2.9,2.133,2.133,0,0,1-1.693,3.231C626.4,625.413,626.355,625.414,626.312,625.414Zm-1.52-2.609.521.023.037.52a.956.956,0,0,0,.961.9l.062,0a.973.973,0,0,0,.87-.728.954.954,0,0,0-.238-.9.753.753,0,0,1,.172-1.171.752.752,0,0,0-.15-1.368.76.76,0,0,0-.821.252l-.3.379-.429-.226a1.236,1.236,0,1,0-.705,2.322Z" transform="translate(-622.496 -618.875)"/></g><g transform="translate(587.56 581.984)"><path class="a" d="M641.788,640.406a3.272,3.272,0,0,1-1.731-.5,2.537,2.537,0,1,1-2.37-4.486,2.846,2.846,0,0,1,.054-2.377l1.054.51a1.657,1.657,0,0,0,.074,1.609.829.829,0,0,1-.458,1.222,1.367,1.367,0,1,0,1.289,2.356l.376-.307.371.312a2.1,2.1,0,0,0,1.054.467,2.073,2.073,0,0,0,.927-4.023l-.058-.015-.488-.142.071-.5a1.666,1.666,0,0,0-1.409-1.895,1.618,1.618,0,0,0-.716.052l-.336-1.121a2.839,2.839,0,0,1,3.649,2.648,3.245,3.245,0,0,1-1.353,6.19Z" transform="translate(-636.288 -631.449)"/></g><g transform="translate(580.928 584.765)"><path class="a" d="M621.864,643.978a2.4,2.4,0,0,1-2.375-2.422,2.431,2.431,0,0,1,.023-.33,1.789,1.789,0,0,1,1.539-2.65,1.731,1.731,0,0,1,1.324.614,2.427,2.427,0,0,1-.511,4.787Zm-.813-4.231a.6.6,0,0,0-.589.619.632.632,0,0,0,.133.384l.171.224-.068.273a1.3,1.3,0,0,0-.039.309,1.206,1.206,0,1,0,1.326-1.245l-.289-.03-.151-.247A.579.579,0,0,0,621.051,639.747Z" transform="translate(-619.291 -638.576)"/></g><g transform="translate(561.712 560.37)"><path class="a" d="M571.534,580.219a2.131,2.131,0,1,1,2.5-3.071,2.614,2.614,0,0,1,2.3,2.592h-1.17a1.441,1.441,0,0,0-1.416-1.439l-.525.026-.136-.426a.961.961,0,1,0-1.2,1.2Z" transform="translate(-570.042 -576.054)"/></g></g></svg>