<svg xmlns="http://www.w3.org/2000/svg" width="40" height="31.692" viewBox="0 0 40 31.692"><defs><style>.a{fill:#4f6dd8;}</style></defs><g transform="translate(-32.987 -99.168)"><g transform="translate(-57.988 -25.701)"><path class="a" d="M114.676,136.719a11.85,11.85,0,1,0-12.992,11.795v5.764H99.407v2.284h6.837v-2.284h-2.276v-5.764A11.866,11.866,0,0,0,114.676,136.719Zm-21.417,0a9.566,9.566,0,1,1,10.708,9.5v-5l4.244-4.352-1.635-1.595-2.609,2.675V135h-2.284v6.178L99.074,138.5,97.439,140.1l4.244,4.353v1.766A9.579,9.579,0,0,1,93.259,136.719Z"/><path class="a" d="M299.548,270.625H285.291a1.142,1.142,0,0,0-1.142,1.142V284.65h2.284v-3.5h11.973v3.5h2.284V271.767A1.142,1.142,0,0,0,299.548,270.625Zm-1.142,2.284v1.838H286.433v-1.838Zm-11.973,4.122h11.973v1.837H286.433Z" transform="translate(-169.714 -128.142)"/></g></g></svg>