<svg xmlns="http://www.w3.org/2000/svg" width="40.058" height="28.613" viewBox="0 0 40.058 28.613"><defs><style>.a{fill:#4f6dd8;}</style></defs><path class="a" d="M45.766,19.723H44.335V18.292a4.292,4.292,0,1,0-8.584,0v5.723H24.306V18.292a4.292,4.292,0,0,0-8.584,0v1.431H14.292A4.3,4.3,0,0,0,10,24.014V32.6a4.3,4.3,0,0,0,4.292,4.292h1.431v1.431a4.292,4.292,0,0,0,8.584,0V32.6H35.752v5.723a4.292,4.292,0,0,0,8.584,0V36.89h1.431A4.3,4.3,0,0,0,50.058,32.6V24.014A4.3,4.3,0,0,0,45.766,19.723ZM14.292,34.029A1.431,1.431,0,0,1,12.861,32.6V24.014a1.431,1.431,0,0,1,1.431-1.431h1.431V34.029Zm7.153,4.292a1.431,1.431,0,0,1-2.861,0V18.292a1.431,1.431,0,1,1,2.861,0Zm2.861-8.584V26.876H35.752v2.861Zm17.168,8.584a1.431,1.431,0,0,1-2.861,0V18.292a1.431,1.431,0,0,1,2.861,0ZM47.2,32.6a1.432,1.432,0,0,1-1.431,1.431H44.335V22.584h1.431A1.432,1.432,0,0,1,47.2,24.014Z" transform="translate(-10 -14)"/></svg>