<svg xmlns="http://www.w3.org/2000/svg" width="39.996" height="32.496" viewBox="0 0 39.996 32.496"><defs><style>.a{fill:#fff;}</style></defs><g transform="translate(-84.658 -138.685)"><g transform="translate(84.658 138.685)"><path class="a" d="M85.908,157.037a1.258,1.258,0,0,1-1.25-1.266v-13.29a3.778,3.778,0,0,1,3.75-3.8h32.5a3.778,3.778,0,0,1,3.75,3.8v13.211a1.25,1.25,0,1,1-2.5,0V142.482a1.259,1.259,0,0,0-1.25-1.266h-32.5a1.259,1.259,0,0,0-1.25,1.266v13.29A1.258,1.258,0,0,1,85.908,157.037Z" transform="translate(-84.658 -138.685)"/><g transform="translate(0 13.511)"><g transform="translate(0 7.594)"><path class="a" d="M123.4,189.9h-3.75a1.258,1.258,0,0,1-1.25-1.265V186.1h-27.5v2.531a1.258,1.258,0,0,1-1.25,1.265h-3.75a1.258,1.258,0,0,1-1.25-1.265v-8.86a1.258,1.258,0,0,1,1.25-1.266h27.5a1.266,1.266,0,0,1,0,2.532H87.157v6.329h1.25v-2.532a1.258,1.258,0,0,1,1.25-1.266h30a1.258,1.258,0,0,1,1.25,1.266v2.532h1.25v-6.329H118.4a1.266,1.266,0,0,1,0-2.532h5a1.258,1.258,0,0,1,1.25,1.266v8.86A1.258,1.258,0,0,1,123.4,189.9Z" transform="translate(-84.658 -178.505)"/></g><path class="a" d="M123.4,174.577a1.258,1.258,0,0,1-1.25-1.266v-5.063a1.259,1.259,0,0,0-1.25-1.266h-32.5a1.259,1.259,0,0,0-1.25,1.266v5.063a1.25,1.25,0,1,1-2.5,0v-5.063a3.778,3.778,0,0,1,3.75-3.8h32.5a3.778,3.778,0,0,1,3.75,3.8v5.063A1.258,1.258,0,0,1,123.4,174.577Z" transform="translate(-84.658 -164.451)"/></g><g transform="translate(5.063 5.214)"><path class="a" d="M104.153,160.523H96.559a2.535,2.535,0,0,1-2.532-2.532v-5.063a2.535,2.535,0,0,1,2.532-2.532h7.594a2.535,2.535,0,0,1,2.532,2.532v5.063A2.535,2.535,0,0,1,104.153,160.523Zm0-7.594H96.559v5.063h7.594Z" transform="translate(-94.027 -150.397)"/></g><g transform="translate(22.276 5.214)"><path class="a" d="M136.947,160.523h-7.595a2.534,2.534,0,0,1-2.531-2.532v-5.063a2.534,2.534,0,0,1,2.531-2.532h7.595a2.534,2.534,0,0,1,2.531,2.532v5.063A2.534,2.534,0,0,1,136.947,160.523Zm0-7.594h-7.595v5.063h7.595Z" transform="translate(-126.821 -150.397)"/></g></g></g></svg>