<svg xmlns="http://www.w3.org/2000/svg" width="15.823" height="16" viewBox="0 0 15.823 16"><defs><style>.a{fill:#111;}</style></defs><path class="a" d="M676,560a1.98,1.98,0,0,1-1.877-1.368l-1.978-6a2.017,2.017,0,0,1,.273-1.8,1.969,1.969,0,0,1,1.6-.831h11.868a1.972,1.972,0,0,1,1.6.831,2.019,2.019,0,0,1,.272,1.8l-1.978,6A1.979,1.979,0,0,1,683.908,560Zm0-2h7.912l1.978-6H674.018Zm-.989-9a1,1,0,0,1,0-2h9.89a1,1,0,0,1,0,2Zm1.978-3a1,1,0,0,1,0-2h5.934a1,1,0,0,1,0,2Z" transform="translate(-672.04 -544)"/></svg>