<svg xmlns="http://www.w3.org/2000/svg" width="16" height="16" viewBox="0 0 16 16"><defs><style>.a{fill:#fff;}</style></defs><path class="a" d="M743,303v-.08a7,7,0,0,1-5.92-5.92H737a1,1,0,0,1,0-2h.08a7,7,0,0,1,5.92-5.92V289a1,1,0,1,1,2,0v.08a7,7,0,0,1,5.92,5.92H751a1,1,0,1,1,0,2h-.079a7,7,0,0,1-5.92,5.92V303a1,1,0,1,1-2,0Zm2-3v.9a5.026,5.026,0,0,0,3.9-3.9H748a1,1,0,1,1,0-2h.9a5.029,5.029,0,0,0-3.9-3.9v.9a1,1,0,1,1-2,0v-.9a5.03,5.03,0,0,0-3.9,3.9h.9a1,1,0,0,1,0,2h-.9a5.027,5.027,0,0,0,3.9,3.9V300a1,1,0,0,1,2,0Zm-2-4a1,1,0,1,1,1,1A1,1,0,0,1,743,296Z" transform="translate(-736 -288)"/></svg>