<svg xmlns="http://www.w3.org/2000/svg" width="16" height="15.93" viewBox="0 0 16 15.93"><defs><style>.a{fill:#fff;}</style></defs><path class="a" d="M431.53,224.185a1.012,1.012,0,0,0-.98-.04l-3.63,1.8-5.528-1.831-.007,0-.065-.028-.12-.03a1.232,1.232,0,0,0-.2-.02.908.908,0,0,0-.23.03c-.027.007-.048.023-.074.032a.992.992,0,0,0-.161.067c-.03.016-.066.023-.1.041l-3.89,1.931a.972.972,0,0,0-.55.886v11.947a.992.992,0,0,0,.47.846,1.014,1.014,0,0,0,.53.15,1.03,1.03,0,0,0,.45-.11l3.63-1.8,5.6,1.862a1.027,1.027,0,0,0,.77-.06l4-1.991a.983.983,0,0,0,.55-.886V225.031A.993.993,0,0,0,431.53,224.185ZM418,227.639l2-1v9.717l-2,1Zm4-1.224,4,1.324v9.846l-4-1.324Zm8,9.946-2,1v-9.717l2-1Z" transform="translate(-416 -224.035)"/></svg>