<svg xmlns="http://www.w3.org/2000/svg" width="28.859" height="40.767" viewBox="0 0 28.859 40.767"><defs><style>.a{fill:#4f6dd8;stroke:#4f6dd8;}</style></defs><path class="a" d="M594.1,104.473h-5.158a1.123,1.123,0,0,0-1.123,1.123v19.322h2.247v-8.21H594.1a6.118,6.118,0,1,0,0-12.235Zm0,9.988h-4.034V106.72H594.1a3.871,3.871,0,1,1,0,7.742Zm-2.778,17.646h2.247v6.066h-2.247Zm10.741-33.7H584.176a4.992,4.992,0,0,0-4.986,4.986v21.931a4.991,4.991,0,0,0,4.986,4.986h17.887a4.992,4.992,0,0,0,4.986-4.986V103.393A4.992,4.992,0,0,0,602.063,98.407Zm2.74,26.917a2.743,2.743,0,0,1-2.74,2.739H584.176a2.742,2.742,0,0,1-2.739-2.739V103.393a2.743,2.743,0,0,1,2.739-2.74h17.887a2.743,2.743,0,0,1,2.74,2.74Z" transform="translate(-578.69 -97.907)"/></svg>