<svg xmlns="http://www.w3.org/2000/svg" width="40.088" height="40.088" viewBox="0 0 40.088 40.088"><defs><style>.a{fill:#4f6dd8;}</style></defs><g transform="translate(-199 -79)"><g transform="translate(-356.477 -209.597)"><g transform="translate(555.477 298.619)"><g transform="translate(0 27.561)"><path class="a" d="M594.312,361.374H556.729a1.253,1.253,0,0,1,0-2.505h37.583a1.253,1.253,0,1,1,0,2.505Z" transform="translate(-555.477 -358.869)"/></g><g transform="translate(1.252 5.011)"><path class="a" d="M594.148,336.75h-5.011a1.253,1.253,0,1,1,0-2.505h3.715a16.291,16.291,0,0,0-32.485,0h23.759a1.253,1.253,0,1,1,0,2.505H559.071a1.253,1.253,0,0,1-1.253-1.253,18.792,18.792,0,0,1,37.583,0A1.253,1.253,0,0,1,594.148,336.75Z" transform="translate(-557.818 -316.706)"/></g><g transform="translate(18.791)"><path class="a" d="M591.865,314.853a1.253,1.253,0,0,1-1.253-1.253v-5.011a1.253,1.253,0,0,1,2.506,0V313.6A1.253,1.253,0,0,1,591.865,314.853Z" transform="translate(-590.612 -307.336)"/></g><g transform="translate(16.285)"><path class="a" d="M592.191,309.842H587.18a1.253,1.253,0,1,1,0-2.506h5.011a1.253,1.253,0,0,1,0,2.506Z" transform="translate(-585.927 -307.336)"/></g></g><g transform="translate(557.982 316.158)"><path class="a" d="M571.436,342.635H561.414a1.253,1.253,0,1,1,0-2.505h10.022a1.253,1.253,0,1,1,0,2.505Z" transform="translate(-560.161 -340.13)"/></g><g transform="translate(574.268 288.597)"><path class="a" d="M591.865,296.113a1.253,1.253,0,0,1-1.253-1.253V289.85a1.253,1.253,0,0,1,2.506,0v5.011A1.253,1.253,0,0,1,591.865,296.113Z" transform="translate(-590.612 -288.597)"/></g><g transform="translate(581.784 292.356)"><path class="a" d="M605.919,300.636a1.253,1.253,0,0,1-.886-2.139l2.505-2.505a1.253,1.253,0,1,1,1.772,1.771l-2.506,2.506A1.249,1.249,0,0,1,605.919,300.636Z" transform="translate(-604.666 -295.625)"/></g><g transform="translate(564.246 292.356)"><path class="a" d="M575.632,300.636a1.249,1.249,0,0,1-.886-.367l-2.505-2.506a1.252,1.252,0,1,1,1.771-1.771l2.506,2.505a1.253,1.253,0,0,1-.886,2.139Z" transform="translate(-571.874 -295.625)"/></g></g></g></svg>